:FULLY-SPECIFIED
:FORCE-ALL-JOINTS-BE-3DOF
:DEGREES
306
root 1.21295 15.3417 -35.5306 51.3012 83.035 53.8198
lfemur -4.74981 3.01987 -18.9824
ltibia 50.3458 -0 0
lfoot -27.4768 26.6203 -0.0457934
ltoes -8.30861 0 0
rfemur -52.4588 -5.43448 11.2149
rtibia 57.1754 -0 0
rfoot -0.219925 9.41758 0.066828
rtoes -10.5225 0 0
lowerback 17.86 -0.232475 -10.3298
upperback -0.591166 -2.25567 1.89319
thorax -10.2368 -0.439371 8.62641
lowerneck -4.80056 -2.15325 -3.58299
upperneck 5.87481 -2.70739 1.58056
head 2.79352 -1.36958 1.02797
lclavicle -6.57773e-15 3.75437e-16 4.17715e-33
lhumerus 6.40927 -47.2779 88.7454
lradius 51.9921 -0 0
lwrist -16.5749 0 0
lhand -25.6423 41.0899 0.00834439
lfingers 7.12502 -0 0
lthumb 0.8912 71.0672 0.00806595
rclavicle -6.57773e-15 3.75437e-16 4.17715e-33
rhumerus 3.35129 27.0925 -66.9725
rradius 116.334 -0 0
rwrist -42.4112 0 0
rhand 85.7757 -11.4009 0.395312
rfingers 7.12502 -0 0
rthumb 58.339 -86.2411 -0.851649
307
root 1.22166 15.3387 -35.529 52.4962 83.1351 55.0284
lfemur -4.72359 3.03594 -19.0033
ltibia 50.3709 -0 0
lfoot -27.4962 26.6602 -0.0424942
ltoes -8.27301 0 0
rfemur -52.5247 -5.44576 11.2089
rtibia 57.2021 -0 0
rfoot -0.167324 9.44264 0.0620276
rtoes -10.4982 0 0
lowerback 17.8808 -0.236414 -10.3466
upperback -0.586447 -2.26661 1.89447
thorax -10.2424 -0.443337 8.63979
lowerneck -4.80067 -2.15011 -3.57683
upperneck 5.87779 -2.7029 1.57038
head 2.79383 -1.36758 1.02361
lclavicle -6.60992e-15 4.04418e-16 3.76923e-33
lhumerus 6.49256 -47.3601 88.7142
lradius 52.0522 -0 0
lwrist -16.5442 0 0
lhand -25.6352 41.1143 0.00774485
lfingers 7.12502 -0 0
lthumb 0.898037 71.0916 0.00748642
rclavicle -6.60992e-15 4.04418e-16 3.76923e-33
rhumerus 3.44473 27.1228 -66.9237
rradius 116.497 -0 0
rwrist -42.5112 0 0
rhand 86.0109 -11.4084 0.366354
rfingers 7.12502 -0 0
rthumb 58.4884 -86.5559 -0.799776
308
root 1.23027 15.3357 -35.5274 53.7094 83.2309 56.255
lfemur -4.69775 3.05178 -19.0238
ltibia 50.3956 -0 0
lfoot -27.5155 26.6996 -0.0392265
ltoes -8.23791 0 0
rfemur -52.5898 -5.45686 11.2029
rtibia 57.2282 -0 0
rfoot -0.115269 9.46737 0.0572711
rtoes -10.4742 0 0
lowerback 17.9013 -0.240291 -10.3633
upperback -0.581802 -2.27738 1.89574
thorax -10.2479 -0.447245 8.65298
lowerneck -4.80078 -2.14704 -3.57076
upperneck 5.88074 -2.69849 1.56034
head 2.79414 -1.36561 1.01931
lclavicle -6.64209e-15 4.3326e-16 3.37829e-33
lhumerus 6.57467 -47.4412 88.6834
lradius 52.1117 -0 0
lwrist -16.5138 0 0
lhand -25.6282 41.1383 0.00715081
lfingers 7.12502 -0 0
lthumb 0.904797 71.1156 0.00691219
rclavicle -6.64209e-15 4.3326e-16 3.37829e-33
rhumerus 3.53717 27.1525 -66.8754
rradius 116.657 -0 0
rwrist -42.6101 0 0
rhand 86.2433 -11.4167 0.337744
rfingers 7.12502 -0 0
rthumb 58.6365 -86.8731 -0.74719
309
root 1.23876 15.3328 -35.5259 54.9398 83.3223 57.4986
lfemur -4.67225 3.0674 -19.0439
ltibia 50.4199 -0 0
lfoot -27.5344 26.7384 -0.0359912
ltoes -8.20331 0 0
rfemur -52.6539 -5.46776 11.1969
rtibia 57.2537 -0 0
rfoot -0.0637639 9.49177 0.0525598
rtoes -10.4504 0 0
lowerback 17.9215 -0.244106 -10.3797
upperback -0.577233 -2.28799 1.897
thorax -10.2534 -0.451093 8.66599
lowerneck -4.80089 -2.14403 -3.56479
upperneck 5.88368 -2.69416 1.55042
head 2.79445 -1.36368 1.01506
lclavicle -6.67422e-15 4.61964e-16 3.00467e-33
lhumerus 6.65558 -47.5211 88.6531
lradius 52.1706 -0 0
lwrist -16.4838 0 0
lhand -25.6213 41.1621 0.00656241
lfingers 7.12502 -0 0
lthumb 0.911479 71.1394 0.00634343
rclavicle -6.67422e-15 4.61964e-16 3.00467e-33
rhumerus 3.62862 27.1817 -66.8278
rradius 116.814 -0 0
rwrist -42.7077 0 0
rhand 86.4729 -11.4257 0.309488
rfingers 7.12502 -0 0
rthumb 58.7833 -87.1928 -0.693894
310
root 1.24714 15.3299 -35.5243 56.186 83.4093 58.7578
lfemur -4.64711 3.08279 -19.0638
ltibia 50.4439 -0 0
lfoot -27.5531 26.7767 -0.0327891
ltoes -8.16919 0 0
rfemur -52.7171 -5.47846 11.191
rtibia 57.2787 -0 0
rfoot -0.0128114 9.51583 0.0478949
rtoes -10.4268 0 0
lowerback 17.9414 -0.24786 -10.3958
upperback -0.572739 -2.29845 1.89825
thorax -10.2587 -0.454881 8.67881
lowerneck -4.801 -2.14108 -3.55892
upperneck 5.88659 -2.68992 1.54063
head 2.79477 -1.3618 1.01087
lclavicle -6.70631e-15 4.90527e-16 2.64872e-33
lhumerus 6.73526 -47.5999 88.6232
lradius 52.2288 -0 0
lwrist -16.4541 0 0
lhand -25.6145 41.1856 0.00597983
lfingers 7.12502 -0 0
lthumb 0.918084 71.1629 0.00578029
rclavicle -6.70631e-15 4.90527e-16 2.64872e-33
rhumerus 3.71905 27.2102 -66.7806
rradius 116.969 -0 0
rwrist -42.8042 0 0
rhand 86.6996 -11.4354 0.281593
rfingers 7.12502 -0 0
rthumb 58.9288 -87.5148 -0.639889
311
root 1.25541 15.327 -35.5228 57.4466 83.492 60.0312
lfemur -4.62232 3.09795 -19.0833
ltibia 50.4675 -0 0
lfoot -27.5715 26.8144 -0.0296211
ltoes -8.1356 0 0
rfemur -52.7793 -5.48897 11.1851
rtibia 57.3031 -0 0
rfoot 0.0375841 9.53956 0.0432776
rtoes -10.4035 0 0
lowerback 17.9609 -0.251552 -10.4117
upperback -0.568321 -2.30874 1.89948
thorax -10.264 -0.45861 8.69145
lowerneck -4.8011 -2.13819 -3.55314
upperneck 5.88949 -2.68577 1.53098
head 2.79509 -1.35995 1.00674
lclavicle -6.73837e-15 5.1895e-16 2.31079e-33
lhumerus 6.81372 -47.6775 88.5937
lradius 52.2864 -0 0
lwrist -16.4248 0 0
lhand -25.6077 41.2088 0.00540321
lfingers 7.12502 -0 0
lthumb 0.924611 71.1862 0.00522291
rclavicle -6.73837e-15 5.1895e-16 2.31079e-33
rhumerus 3.80846 27.2382 -66.7341
rradius 117.122 -0 0
rwrist -42.8995 0 0
rhand 86.9234 -11.4458 0.254063
rfingers 7.12502 -0 0
rthumb 59.0729 -87.8393 -0.585179
312
root 1.26356 15.3242 -35.5213 58.7202 83.5703 61.3174
lfemur -4.59789 3.11289 -19.1025
ltibia 50.4908 -0 0
lfoot -27.5897 26.8516 -0.026488
ltoes -8.10253 0 0
rfemur -52.8405 -5.49928 11.1793
rtibia 57.3269 -0 0
rfoot 0.0874188 9.56295 0.0387092
rtoes -10.3805 0 0
lowerback 17.9801 -0.255182 -10.4274
upperback -0.56398 -2.31887 1.90071
thorax -10.2692 -0.462278 8.70389
lowerneck -4.8012 -2.13537 -3.54746
upperneck 5.89236 -2.6817 1.52146
head 2.79542 -1.35814 1.00267
lclavicle -6.7704e-15 5.47229e-16 1.99122e-33
lhumerus 6.89092 -47.754 88.5647
lradius 52.3433 -0 0
lwrist -16.3959 0 0
lhand -25.601 41.2317 0.00483272
lfingers 7.12502 -0 0
lthumb 0.931058 71.2091 0.00467146
rclavicle -6.7704e-15 5.47229e-16 1.99122e-33
rhumerus 3.89683 27.2656 -66.6881
rradius 117.272 -0 0
rwrist -42.9935 0 0
rhand 87.1444 -11.4569 0.226904
rfingers 7.12502 -0 0
rthumb 59.2157 -88.1663 -0.529765
313
root 1.2716 15.3214 -35.5198 60.005 83.6442 62.6146
lfemur -4.57382 3.12759 -19.1214
ltibia 50.5137 -0 0
lfoot -27.6075 26.8882 -0.0233907
ltoes -8.06996 0 0
rfemur -52.9008 -5.50938 11.1734
rtibia 57.3502 -0 0
rfoot 0.136689 9.586 0.034191
rtoes -10.3577 0 0
lowerback 17.999 -0.25875 -10.4428
upperback -0.559716 -2.32884 1.90192
thorax -10.2743 -0.465886 8.71614
lowerneck -4.8013 -2.1326 -3.54188
upperneck 5.89522 -2.67771 1.51208
head 2.79575 -1.35638 0.998662
lclavicle -6.80238e-15 5.75365e-16 1.69037e-33
lhumerus 6.96684 -47.8293 88.5362
lradius 52.3996 -0 0
lwrist -16.3674 0 0
lhand -25.5944 41.2543 0.00426852
lfingers 7.12502 -0 0
lthumb 0.937427 71.2317 0.00412608
rclavicle -6.80238e-15 5.75365e-16 1.69037e-33
rhumerus 3.98417 27.2924 -66.6428
rradius 117.42 -0 0
rwrist -43.0863 0 0
rhand 87.3624 -11.4687 0.200121
rfingers 7.12502 -0 0
rthumb 59.3571 -88.4957 -0.473652
